<?xml version="1.0" encoding="UTF-8" standalone="no"?>
<!DOCTYPE svg PUBLIC "-//W3C//DTD SVG 1.1//EN" "http://www.w3.org/1999/xlink">
<svg width="100%" height="100%" viewBox="0 0 500 500" version="1.1" xmlns="http://www.w3.org/2000/svg"  xml:space="preserve" style="fill-rule:evenodd;clip-rule:evenodd;stroke-linejoin:round;stroke-miterlimit:2;">
    <g id="path6" transform="matrix(-0.748757,0.748757,-0.748757,-0.748757,583.222,249.102)">
        <path d="M61.925,60.729C73.933,48.718 93.16,57.856 104.948,65.261C118.742,73.926 130.941,85.102 142.422,96.582L209.385,163.546L417.532,123.646C418.765,123.028 420.672,123.367 421.939,123.72C423.335,124.108 424.599,124.854 425.623,125.878L443.48,143.735C445.681,145.937 446.35,149.13 445.829,152.138C445.344,154.946 443.556,157.093 440.969,158.242L280.533,234.693L348.892,303.051C367.487,297.738 386.082,292.401 404.78,287.456C408.468,286.481 412.162,285.502 415.885,284.668C416.78,284.468 417.679,284.265 418.587,284.136C421.114,283.777 423.839,284.807 425.622,286.59L443.478,304.725C445.594,306.842 446.333,309.92 445.857,312.832C445.411,315.565 443.661,317.677 441.247,318.955L363.122,362.203L319.874,440.328C318.427,442.642 316.229,444.312 313.489,444.695C310.65,445.092 307.697,444.335 305.643,442.281L287.786,424.424C285.898,422.537 284.944,419.712 285.383,417.068C285.594,415.794 285.894,414.533 286.191,413.276C287.412,408.111 288.8,402.984 290.185,397.862C294.717,381.097 299.478,364.393 304.249,347.695L235.89,279.336L159.439,439.773C158.332,442.263 156.293,444.041 153.599,444.584C150.525,445.203 147.191,444.545 144.931,442.284L127.074,424.428C125.4,422.754 124.563,420.615 124.563,418.01L124.842,416.336L164.74,208.19L97.775,141.226C89.471,132.922 81.465,124.264 74.303,114.946C68.98,108.02 64.019,100.669 60.451,92.669C55.979,82.639 53.229,69.417 61.925,60.729C65.737,56.915 58.108,64.542 61.925,60.729Z" style="fill:white;fill-rule:nonzero;"/>
    </g>
</svg>
