<?xml version="1.0" encoding="UTF-8" standalone="no"?>
<!DOCTYPE svg PUBLIC "-//W3C//DTD SVG 1.1//EN" "http://www.w3.org/1999/xlink">
<svg width="100%" height="100%" viewBox="0 0 106 113" version="1.1" xmlns="http://www.w3.org/2000/svg" xml:space="preserve" style="fill-rule:event;clip-rule:event;stroke-linejoin:round;stroke-miterlimit:2;">
    <g>
        <rect x="0" y="0" width="105.159" height="112.411" style="fill-opacity:0;"/>
        <path d="M10.641,112.345L94.454,112.345C101.147,112.345 105.159,109.209 105.159,104.055C105.159,87.92 84.984,65.657 52.554,65.657C20.19,65.657 0.001,87.92 0.001,104.055C0.001,109.209 4.027,112.345 10.641,112.345ZM52.581,54.479C66.033,54.479 77.593,42.491 77.593,26.861C77.593,11.473 65.992,0 52.581,0C39.236,0 27.622,11.738 27.622,26.993C27.622,42.491 39.195,54.479 52.581,54.479Z" style="fill-opacity:0.85;fill-rule:nonzero;"/>
    </g>
</svg>
