<?xml version="1.0" encoding="UTF-8" standalone="no"?>
<!DOCTYPE svg PUBLIC "-//W3C//DTD SVG 1.1//EN" "http://www.w3.org/1999/xlink">
<svg width="100%" height="100%" viewBox="0 0 1080 1080" version="1.1" xmlns="http://www.w3.org/2000/svg" xml:space="preserve" style="fill-rule:evenodd;clip-rule:evenodd;stroke-linejoin:round;stroke-miterlimit:2;">
    <rect id="Artboard1" x="0" y="0" width="1080" height="1080" style="fill:none;"/>
    <g id="Artboard11" >
        <g transform="matrix(-0.742854,0.742854,-0.98366,-0.98366,1479.05,637.758)">
            <path d="M699.8,627.867L699.8,758.527C699.8,785.274 685.731,810.926 660.686,829.84C635.642,848.753 601.675,859.378 566.257,859.378L566.255,859.378C530.837,859.378 496.87,848.753 471.825,829.84C446.781,810.926 432.711,785.274 432.711,758.527L432.711,627.867L259.697,627.867C224.279,627.867 190.312,617.242 165.267,598.329C140.223,579.415 126.153,553.763 126.153,527.016L126.153,527.015C126.153,500.267 140.223,474.615 165.267,455.702C190.312,436.789 224.279,426.163 259.697,426.163L432.711,426.163L432.711,295.504C432.711,268.756 446.781,243.104 471.825,224.191C496.87,205.278 530.837,194.652 566.255,194.652L566.257,194.652C601.675,194.652 635.642,205.278 660.686,224.191C685.731,243.104 699.8,268.756 699.8,295.504L699.8,426.163L872.815,426.163C908.233,426.163 942.2,436.789 967.245,455.702C992.289,474.615 1006.36,500.267 1006.36,527.015L1006.36,527.016C1006.36,553.763 992.289,579.415 967.245,598.329C942.2,617.242 908.233,627.867 872.815,627.867L699.8,627.867Z" style="fill:white;"/>
        </g>
    </g>
</svg>
